<?xml version="1.0" encoding="UTF-8" standalone="no"?>
<!-- Created with Inkscape (http://www.inkscape.org/) -->

<svg
   xmlns:dc="http://purl.org/dc/elements/1.1/"
   xmlns:cc="http://creativecommons.org/ns#"
   xmlns:rdf="http://www.w3.org/1999/02/22-rdf-syntax-ns#"
   xmlns:svg="http://www.w3.org/2000/svg"
   xmlns="http://www.w3.org/2000/svg"
   xmlns:xlink="http://www.w3.org/1999/xlink"
   xmlns:sodipodi="http://sodipodi.sourceforge.net/DTD/sodipodi-0.dtd"
   xmlns:inkscape="http://www.inkscape.org/namespaces/inkscape"
   width="64"
   height="64"
   viewBox="0 0 16.933333 16.933333"
   version="1.1"
   id="svg8"
   sodipodi:docname="pidgin.svg"
   inkscape:version="0.92.2 (5c3e80d, 2017-08-06)">
  <defs
     id="defs2">
    <linearGradient
       inkscape:collect="always"
       id="linearGradient864">
      <stop
         style="stop-color:#dc95bf;stop-opacity:1"
         offset="0"
         id="stop860" />
      <stop
         style="stop-color:#9067cc;stop-opacity:1"
         offset="1"
         id="stop862" />
    </linearGradient>
    <linearGradient
       inkscape:collect="always"
       xlink:href="#linearGradient864"
       id="linearGradient866"
       x1="7.9250975"
       y1="281.29449"
       x2="7.9250975"
       y2="295.84656"
       gradientUnits="userSpaceOnUse"
       gradientTransform="translate(0.01240271,-0.1694987)" />
    <linearGradient
       id="linearGradient3866">
      <stop
         style="stop-color:#000000;stop-opacity:0.52083331"
         offset="0"
         id="stop3868" />
      <stop
         style="stop-color:#2883c3;stop-opacity:0;"
         offset="1"
         id="stop3870" />
    </linearGradient>
    <linearGradient
       id="linearGradient3874">
      <stop
         style="stop-color:#000d0e;stop-opacity:0.84105963;"
         offset="0"
         id="stop3876" />
      <stop
         style="stop-color:#000000;stop-opacity:0;"
         offset="1"
         id="stop3878" />
    </linearGradient>
    <clipPath
       id="clipPath892"
       clipPathUnits="userSpaceOnUse">
      <path
         inkscape:connector-curvature="0"
         id="path894"
         d="M 38.524123,20.232391 V 51.2388 h 3.597154 V 20.232391 Z M 14.125746,21.0025 V 52.010565 H 17.7229 V 21.0025 Z M 5.9924018,21.259203 V 52.267267 H 9.591212 V 21.259203 Z m 24.3983772,1.37129 v 31.006409 h 3.597153 V 22.630493 Z m -20.330877,1.626338 v 31.008065 h 3.597154 V 24.256831 Z m 24.396721,0.08612 v 31.008065 h 3.598809 V 24.342951 Z M 1.9265577,25.798705 V 56.80677 H 5.5237118 V 25.798705 Z m 16.2650323,0.08612 v 31.008064 h 3.597155 V 25.884825 Z m 24.398377,0 v 31.008064 h 3.597154 V 25.884825 Z m -16.265033,2.22752 v 31.006408 h 3.597155 V 28.112345 Z M 22.25909,30.76715 v 31.008065 h 3.597155 V 30.76715 Z"
         style="fill:#ffffff;fill-opacity:0.25520833;stroke:none;stroke-width:1.52630627;stroke-linecap:round;stroke-linejoin:round;stroke-miterlimit:4;stroke-dasharray:none;stroke-opacity:1" />
    </clipPath>
    <clipPath
       clipPathUnits="userSpaceOnUse"
       id="clipPath3881">
      <path
         sodipodi:type="arc"
         style="fill:#008dff;fill-opacity:1;fill-rule:evenodd;stroke:none"
         id="path3883"
         sodipodi:cx="539.5"
         sodipodi:cy="152.5"
         sodipodi:rx="103.5"
         sodipodi:ry="103.5"
         d="m 643,152.5 a 103.5,103.5 0 1 1 -207,0 103.5,103.5 0 1 1 207,0 z"
         transform="translate(-412,-17)" />
    </clipPath>
    <linearGradient
       id="linearGradient4019">
      <stop
         offset="0"
         style="stop-color:#adcce1;stop-opacity:1;"
         id="stop4021" />
      <stop
         offset="0.26238"
         style="stop-color:#6bbfe1;stop-opacity:1;"
         id="stop4023" />
      <stop
         offset="0.74620908"
         style="stop-color:#2596d1;stop-opacity:1;"
         id="stop4025" />
      <stop
         offset="1"
         style="stop-color:#2372c0;stop-opacity:1;"
         id="stop4027" />
    </linearGradient>
    <linearGradient
       id="linearGradient4085">
      <stop
         offset="0"
         style="stop-color:#ffffff;stop-opacity:1"
         id="stop4087" />
      <stop
         offset="0.06316455"
         style="stop-color:#ffffff;stop-opacity:0.2"
         id="stop4089" />
      <stop
         offset="0.95056331"
         style="stop-color:#ffffff;stop-opacity:0.2"
         id="stop4091" />
      <stop
         offset="1"
         style="stop-color:#ffffff;stop-opacity:0.39215687"
         id="stop4093" />
    </linearGradient>
    <filter
       id="filter3174"
       color-interpolation-filters="sRGB">
      <feGaussianBlur
         stdDeviation="1.71"
         id="feGaussianBlur3176" />
    </filter>
    <linearGradient
       gradientTransform="scale(1.0058652,0.994169)"
       gradientUnits="userSpaceOnUse"
       id="ButtonShadow"
       y2="7.0165396"
       x2="45.447727"
       y1="92.539597"
       x1="45.447727">
      <stop
         offset="0"
         style="stop-color:#000000;stop-opacity:1"
         id="stop3750" />
      <stop
         offset="1"
         style="stop-color:#000000;stop-opacity:0.58823532"
         id="stop3752" />
    </linearGradient>
    <linearGradient
       id="linearGradient5048-8-7">
      <stop
         offset="0"
         style="stop-color:#000000;stop-opacity:0"
         id="stop5050-4-2" />
      <stop
         offset="0.5"
         style="stop-color:#000000;stop-opacity:1"
         id="stop5056-7-4" />
      <stop
         offset="1"
         style="stop-color:#000000;stop-opacity:0"
         id="stop5052-0-1-7" />
    </linearGradient>
    <linearGradient
       id="linearGradient5060-29-0">
      <stop
         offset="0"
         style="stop-color:#000000;stop-opacity:1"
         id="stop5062-9-7" />
      <stop
         offset="1"
         style="stop-color:#000000;stop-opacity:0"
         id="stop5064-08-2" />
    </linearGradient>
    <linearGradient
       id="linearGradient3851">
      <stop
         id="stop3853"
         style="stop-color:#5b8da7;stop-opacity:1;"
         offset="0" />
      <stop
         id="stop3855"
         style="stop-color:#1c3447;stop-opacity:1;"
         offset="1" />
    </linearGradient>
    <filter
       id="filter3174-0"
       color-interpolation-filters="sRGB">
      <feGaussianBlur
         stdDeviation="1.71"
         id="feGaussianBlur3176-9" />
    </filter>
    <clipPath
       id="clipPath916"
       clipPathUnits="userSpaceOnUse">
      <g
         id="g920"
         inkscape:label="circulo"
         style="display:inline;opacity:0.98999999;fill:#126136;fill-opacity:1"
         transform="matrix(1.1503549,0,0,1.1503549,-4.4861245,-7.5255648)">
        <path
           style="fill:#126136;fill-opacity:1;stroke:none;stroke-width:1.4909519"
           d="M 44.322082,27.405077 A 19.729762,19.729765 0 0 1 24.59232,47.134842 19.729762,19.729765 0 0 1 4.8625579,27.405077 19.729762,19.729765 0 0 1 24.59232,7.6753138 19.729762,19.729765 0 0 1 44.322082,27.405077 Z"
           id="path918"
           inkscape:connector-curvature="0" />
      </g>
    </clipPath>
    <clipPath
       clipPathUnits="userSpaceOnUse"
       id="clipPath3866">
      <path
         d="m 1444,449 a 312,312 0 1 1 -624,0 312,312 0 1 1 624,0 z"
         sodipodi:ry="312"
         sodipodi:rx="312"
         sodipodi:cy="449"
         sodipodi:cx="1132"
         id="path3868"
         style="fill:#44abb1;fill-opacity:1;fill-rule:evenodd;stroke:none"
         sodipodi:type="arc"
         transform="matrix(0.68724124,0,0,0.68724124,-521.35527,-47.661719)" />
    </clipPath>
    <clipPath
       id="clipPath3764"
       clipPathUnits="userSpaceOnUse">
      <path
         sodipodi:type="arc"
         style="fill:#ca53a9;fill-opacity:1;fill-rule:evenodd;stroke:none"
         id="path3766"
         sodipodi:cx="201.42857"
         sodipodi:cy="247.71428"
         sodipodi:rx="145.71428"
         sodipodi:ry="145.71428"
         d="m 347.14285,247.71428 a 145.71428,145.71428 0 1 1 -291.428556,0 145.71428,145.71428 0 1 1 291.428556,0 z"
         transform="matrix(1.1842024,0,0,1.1842024,-57.405563,467.28782)" />
    </clipPath>
    <clipPath
       id="clipPath848"
       clipPathUnits="userSpaceOnUse">
      <path
         style="fill:#6f3aa6;fill-opacity:1;stroke-width:1.06896555"
         d="M 242.14258,590.93445 A 199.28572,199.28572 0 0 0 42.857422,790.2196 199.28572,199.28572 0 0 0 242.14258,989.50476 199.28572,199.28572 0 0 0 321.15234,972.92077 l 120.27539,69.44143 V 790.2196 A 199.28572,199.28572 0 0 0 242.14258,590.93445 Z"
         id="path850"
         inkscape:connector-curvature="0" />
    </clipPath>
  </defs>
  <sodipodi:namedview
     id="base"
     pagecolor="#ffffff"
     bordercolor="#666666"
     borderopacity="1.0"
     inkscape:pageopacity="0.0"
     inkscape:pageshadow="2"
     inkscape:zoom="1.5"
     inkscape:cx="-65.494797"
     inkscape:cy="20.599556"
     inkscape:document-units="mm"
     inkscape:current-layer="layer1"
     showgrid="true"
     units="px"
     inkscape:window-width="1360"
     inkscape:window-height="717"
     inkscape:window-x="0"
     inkscape:window-y="25"
     inkscape:window-maximized="1"
     showguides="false">
    <inkscape:grid
       type="xygrid"
       id="grid12" />
  </sodipodi:namedview>
  <metadata
     id="metadata5">
    <rdf:RDF>
      <cc:Work
         rdf:about="">
        <dc:format>image/svg+xml</dc:format>
        <dc:type
           rdf:resource="http://purl.org/dc/dcmitype/StillImage" />
        <dc:title />
      </cc:Work>
    </rdf:RDF>
  </metadata>
  <g
     inkscape:label="Capa 1"
     inkscape:groupmode="layer"
     id="layer1"
     transform="translate(0,-280.06665)"
     style="display:inline">
    <circle
       style="fill:#7b5ca8;fill-opacity:1;stroke-width:0.26458332"
       r="7.8109517"
       cy="289.04556"
       cx="8.6184816"
       id="circle1231" />
    <circle
       id="path10"
       cx="8.6184816"
       cy="288.31796"
       r="7.8109517"
       style="fill:url(#linearGradient866);fill-opacity:1;stroke-width:0.26458332" />
    <path
       style="fill:#ffffff;fill-opacity:0.25;stroke-width:0.99999994"
       d="M 62.078125,30.667969 A 29.521707,29.521707 0 0 1 32.574219,59.824219 29.521707,29.521707 0 0 1 3.0703125,30.818359 29.521707,29.521707 0 0 0 3.0527344,31.185547 29.521707,29.521707 0 0 0 32.574219,60.707031 29.521707,29.521707 0 0 0 62.095703,31.185547 29.521707,29.521707 0 0 0 62.078125,30.667969 Z"
       transform="matrix(0.26458333,0,0,0.26458333,0,280.06665)"
       id="circle1233"
       inkscape:connector-curvature="0" />
    <path
       style="fill:#ffffff;fill-opacity:0.17241378;stroke-width:0.99999994"
       d="M 32.574219,1.6640625 A 29.521707,29.521707 0 0 0 3.0527344,31.185547 29.521707,29.521707 0 0 0 3.0683594,31.623047 29.521707,29.521707 0 0 1 32.574219,2.4140625 29.521707,29.521707 0 0 1 62.080078,31.496094 29.521707,29.521707 0 0 0 62.095703,31.185547 29.521707,29.521707 0 0 0 32.574219,1.6640625 Z"
       transform="matrix(0.26458333,0,0,0.26458333,0,280.06665)"
       id="circle1238"
       inkscape:connector-curvature="0" />
    <path
       style="fill:#ffffff;fill-opacity:1;stroke-width:0.02211018"
       d="m 8.6184814,284.33659 a 4.1219695,4.1219695 0 0 0 -4.121958,4.12196 4.1219695,4.1219695 0 0 0 4.121958,4.12196 4.1219695,4.1219695 0 0 0 1.6342146,-0.34303 l 2.487744,1.43632 v -5.21525 a 4.1219695,4.1219695 0 0 0 -4.1219586,-4.12196 z m -2.378628,3.32414 c 0.240299,0 0.456674,0.10243 0.607827,0.26606 0.136265,0.14749 0.219522,0.34465 0.219522,0.5613 0,0.45693 -0.370416,0.82734 -0.827349,0.82734 -0.248482,0 -0.471359,-0.10956 -0.623015,-0.28294 -0.127221,-0.14549 -0.204333,-0.33595 -0.204333,-0.5444 0,-0.45693 0.370417,-0.82736 0.827348,-0.82736 z m 2.378628,0 c 0.235675,0 0.44833,0.0986 0.59902,0.2567 0.141472,0.14844 0.228329,0.34939 0.228329,0.57066 0,0.45693 -0.370418,0.82734 -0.827349,0.82734 -0.22641,0 -0.431572,-0.091 -0.580962,-0.23826 -0.152102,-0.15004 -0.246386,-0.35857 -0.246386,-0.58908 0,-0.45693 0.370415,-0.82736 0.827348,-0.82736 z m 2.3786286,0 c 0.220765,0 0.421335,0.0865 0.56969,0.22741 0.158706,0.15074 0.257659,0.36377 0.257659,0.59995 0,0.45693 -0.370418,0.82734 -0.827349,0.82734 -0.251839,0 -0.477412,-0.11249 -0.629158,-0.29001 -0.123578,-0.14456 -0.198193,-0.33225 -0.198193,-0.53733 0,-0.45693 0.370417,-0.82736 0.827351,-0.82736 z"
       id="path16"
       inkscape:connector-curvature="0" />
  </g>
</svg>
